
        <svg xmlns="http://www.w3.org/2000/svg" xmlns:xlink="http://www.w3.org/1999/xlink" version="1.1" width="3103.372382564451" 
        height="3151.778656126482" viewBox="0 0 3103.372382564451 3151.778656126482">
			<rect fill="#000000" width="3103.372382564451" height="3151.778656126482"/>
			<g transform="scale(7.588932806324112) translate(10, 10)">
				<defs id="SvgjsDefs13797"><linearGradient id="SvgjsLinearGradient13804"><stop id="SvgjsStop13805" stop-color="#ef4136" offset="0"></stop><stop id="SvgjsStop13806" stop-color="#fbb040" offset="1"></stop></linearGradient><linearGradient id="SvgjsLinearGradient13807"><stop id="SvgjsStop13808" stop-color="#ef4136" offset="0"></stop><stop id="SvgjsStop13809" stop-color="#fbb040" offset="1"></stop></linearGradient><linearGradient id="SvgjsLinearGradient13810"><stop id="SvgjsStop13811" stop-color="#ef4136" offset="0"></stop><stop id="SvgjsStop13812" stop-color="#fbb040" offset="1"></stop></linearGradient></defs><g id="SvgjsG13798" featureKey="rootContainer" transform="matrix(2.090724660862093,0,0,2.090724660862093,0.000730753505903203,0.00036064131072371583)" fill="url(#SvgjsLinearGradient13804)"><path xmlns="http://www.w3.org/2000/svg" d="M17.914 148.907zM22.657 154.94a90.586 90.586 0 0 0 5.861 6.251c6.914 6.805 15.159 12.525 24.004 16.851 3.259 1.526 6.265 3.107 9.787 4.468.88.338 1.779.7 2.724 1.026.953.302 1.941.604 2.974.903 1.027.321 2.122.549 3.267.786 1.146.23 2.336.493 3.614.624a91.24 91.24 0 0 1-18.434-5.99 93.833 93.833 0 0 1-16.873-9.842c-10.548-7.727-19.57-17.648-26.16-28.989-.272-.339-.685-.985-1.18-1.808l-.796-1.348-.803-1.551c-.534-1.076-1.149-2.168-1.62-3.226a71.281 71.281 0 0 0-1.326-2.748c2.048 5.101 4.412 9.563 7.059 13.806a93.473 93.473 0 0 0 3.869 5.697c-.192-.259-.392-.511-.583-.771a95.012 95.012 0 0 0 4.6 5.841l.016.02zM18.039 149.078l-.125-.17.125.17zM1.335 106.042l-.483-3.875c.256 2.365.553 5.008 1.096 7.654l-.327-1.879a23.961 23.961 0 0 1-.286-1.9zM85.812 185.575c6.652.673 13.628.472 20.461-.609 6.837-1.077 13.524-2.987 19.741-5.449-11.45 4.503-23.602 6.506-35.49 6.171-1.591-.025-3.159 0-4.712-.113z"></path><path xmlns="http://www.w3.org/2000/svg" d="M46.426 171.967l-.259-.165c.087.055.172.111.259.165zM46.167 171.802zM43.653 170.135zM56.077 177.284A83.837 83.837 0 0 0 73.2 183.1c-9.688-2.21-18.805-6.109-26.774-11.133 3.06 1.947 6.277 3.749 9.651 5.317zM177.002 107.094c.098-1.58.296-3.238.346-4.027.594-5.071.77-9.401.745-13.745-.11-.783-.425-2.25-.55-3.918-.153-1.672-.378-3.309-.568-4.924-.289-1.601-.538-3.186-.854-4.74 2.275 11.617 2.237 23.279.144 34.282a94.97 94.97 0 0 1 .737-2.928z"></path><path xmlns="http://www.w3.org/2000/svg" d="M.887 83.482c.848-6.9 2.653-13.626 4.37-18.107l-.695 3.28c.429-.961 1.122-3.194 2.067-5.557l.682-1.802.753-1.747c.5-1.131.92-2.203 1.363-3.025-.303.771-.595 1.602-.947 2.436-.345.837-.732 1.687-1.101 2.542l1.514-3.409A111.863 111.863 0 0 0 4.954 69.8c-1.133 4.352-2.029 8.926-2.511 13.032-.14 1.024-.189 2.024-.28 2.978-.067.954-.183 1.864-.192 2.724-.042 1.719-.1 3.224-.071 4.428.105 2.409.25 3.61.459 2.939.411-1.333.403-8.188 1.837-16.767.767-4.276 1.868-8.966 3.362-13.561 1.483-4.599 3.427-9.058 5.44-12.992l-.592 1.292-.545 1.331-1.116 2.691-1.024 2.78-.521 1.402c-.153.476-.308.954-.461 1.434-1.32 3.807-2.307 7.816-3.167 11.857l-.559 3.052c-.205 1.014-.292 2.046-.444 3.067-.318 2.041-.434 4.097-.611 6.129-.199 4.074-.239 8.098.13 11.946-.015-.914-.03-1.726-.017-2.512l.115-2.355c.048-.809.039-1.667.115-2.65.07-.983.134-2.091.19-3.402.391-6.608 1.572-13.15 3.408-19.481 1.75-6.358 3.814-11.957 6.889-17.03l.801-1.526c.542-1.024.993-2.034 1.566-3.064.653-1.13 1.278-1.976 1.784-2.751.521-.767.963-1.441 1.469-2.095l3.682-5.082c.075-.009-.022.185-.2.473a28.962 28.962 0 0 1 1.959-2.49c.755-.875 1.488-1.803 2.109-2.569.146-.007.288-.011.623-.251 8.65-9.197 19.295-16.692 31.291-21.417l2.667-1.039 2.7-.899 1.343-.448 1.36-.38 2.71-.753c1.55-.373 3.12-.751 4.721-1.091l2.437-.426c.819-.141 1.642-.3 2.484-.378 1.674-.201 3.134-.625 3.921-.729 4.369-.249 8.73-.199 13.849.216.397.007 1.015.043 1.732.082.717.041 1.537.061 2.332.134.932.21 1.927.418 2.971.621 6.369.988 12.527 2.754 18.386 5.103l-.007-.028 2.244.894 2.29 1.058c1.571.684 3.11 1.559 4.7 2.383.798.407 1.554.904 2.338 1.354.77.474 1.576.894 2.32 1.412 1.508 1.002 3.037 1.961 4.446 3.032a99.912 99.912 0 0 1 6.6 5.198c.046.042.094.081.14.122l.042.038 1.457 1.322 1.394 1.391 1.395 1.392c.462.467.89.967 1.337 1.449-.216-.35-.208-.491-.2-.63-.689-.66-1.504-1.441-2.309-2.21 1.343 1.222 2.515 2.327 3.477 3.229.371.474.776.94 1.16 1.449l1.186 1.566 1.261 1.629 1.255 1.752c2.226 2.838 4.191 5.874 6.057 8.97.864 1.588 1.817 3.131 2.586 4.774l1.213 2.436 1.092 2.497c.314.533.192.022.231-.068 1.225 2.962 2.21 6.042 3.102 9.146a88.212 88.212 0 0 1 3.408 17.211c.225 1.378.321 2.772.52 4.153l-.123 2.924c-.001 1.103.057 2.206.01 3.311l-.128 3.326c-.016.75-.124 1.569-.187 2.459-.084.888-.128 1.846-.256 2.856l-.412 3.192c-.132 1.119-.387 2.269-.583 3.471a90.635 90.635 0 0 1-4.312 15.482c-.242.826-.427 1.486-.592 1.855-.627 1.501-1.296 2.954-1.942 4.385-.723 1.394-1.386 2.788-2.127 4.108a86.09 86.09 0 0 1-7.949 12.379c-.336.439-.649.885-.987 1.297l-.998 1.206c-.66.779-1.25 1.558-1.876 2.234-1.251 1.352-2.301 2.606-3.286 3.549-1.128 1.178-1.027 1.233-.246.665a35.07 35.07 0 0 0 1.608-1.262l2.122-1.914c.776-.677 1.519-1.441 2.235-2.161.708-.725 1.416-1.386 1.962-1.984 1.101-1.191 1.824-1.926 1.67-1.599-1.777 3.345-5.013 7.471-9.743 12.035-2.413 2.227-5.128 4.647-8.339 6.98-1.566 1.221-3.307 2.338-5.082 3.558-1.834 1.123-3.708 2.353-5.757 3.445-4.484 2.442 3.365-1.475 3.577-1.512a22.87 22.87 0 0 1-2.377 1.64c-1.478.786-2.943 1.597-4.474 2.273-.895.411-1.774.855-2.679 1.239l-2.729 1.122 1.444-.568c2.952-1.173 5.711-2.555 8.202-3.922-.936.566-1.96 1.221-3.082 1.812-1.203.622-2.448 1.302-3.697 1.909l-3.625 1.686c12.968-4.711 24.885-12.507 34.319-22.67 4.723-5.066 8.935-10.631 12.369-16.651a93.904 93.904 0 0 0 8.288-18.999c-3.154 9.93-8.071 19.052-13.981 26.765 10.744-14.507 17.15-32.293 17.999-50.636-.001 1.011-.101 2.018-.168 3.025-.083 1.007-.123 2.018-.241 3.022-.257 2.005-.441 4.021-.827 6.009-.624 4-1.636 7.931-2.782 11.815 2.262-7.021 3.613-14.424 4.145-21.869.554-7.451.092-14.947-1.057-22.211 1.974 9.622 2.301 20.524.619 31.298 1.182-6.949 1.482-14.112 1.028-21.214-.102-2.713-.422-5.407-.685-7.901-.377-2.476-.662-4.762-1.027-6.611 1.445 6.826 2.015 12.648 2.293 18.136-.267-11.977-2.748-24.112-7.62-35.511 2.659 6.191 4.842 12.851 6.175 19.698 1.34 6.84 1.897 13.838 1.58 20.57-.015-.788.018-1.575-.028-2.366l-.107-2.391c.287 10.85-1.384 21.604-4.696 31.717-1.662 5.056-3.715 9.969-6.2 14.644a95.521 95.521 0 0 1-8.56 13.316c3.673-4.29 7.551-10.354 10.646-17.015 3.081-6.675 5.368-13.894 6.941-20.199-2.314 11.322-6.907 22.494-13.571 32.471-6.646 9.985-15.351 18.764-25.423 25.502-10.06 6.759-21.474 11.437-33.187 13.748a94.608 94.608 0 0 1-17.657 1.809 94.462 94.462 0 0 1-17.361-1.515l3.005.571c1.002.19 2.018.295 3.026.445 2.016.324 4.055.446 6.087.633 4.073.229 8.168.306 12.25-.005 4.089-.217 8.152-.827 12.196-1.572 2.006-.456 4.036-.829 6.017-1.414.994-.278 2-.521 2.987-.83l2.955-.958c-1.492.462-3.062 1.074-4.739 1.523l-2.101.618a91.772 91.772 0 0 0 12.91-4.496 89.46 89.46 0 0 0 5.651-2.705 96.653 96.653 0 0 1-10.714 4.872 98.407 98.407 0 0 1-21.66 5.382c-1.11.176-2.122.231-3.029.326l-2.428.24c-1.429.113-2.484.164-3.222.245-1.477.147-1.687.284-1.099.397.587.113 1.971.203 3.673.251 1.697-.01 3.71-.101 5.541-.268 18.397-1.887 35.288-9.107 48.824-19.916 13.545-10.811 23.919-25.172 29.701-41.467.363-.946.642-1.922.944-2.89.293-.971.617-1.932.882-2.912.491-1.97 1.072-3.917 1.448-5.917l.619-2.985.487-3.012.241-1.507.172-1.517.342-3.034c.698-8.114.422-16.315-.812-24.363-.66-4.554-1.82-9.961-3.315-14.777l-1.15-3.484c-.4-1.107-.825-2.151-1.203-3.133l-.557-1.415-.571-1.271-.981-2.124c-3.134-6.359-7.072-12.424-11.682-18.065-4.605-5.643-9.896-10.868-15.861-15.418l-2.244-1.703-2.327-1.608-1.166-.806-1.203-.756-2.417-1.508c-3.295-1.904-6.67-3.739-10.228-5.261-3.521-1.598-7.206-2.895-10.957-4.055-1.895-.52-3.781-1.1-5.724-1.499-.968-.209-1.928-.463-2.907-.638l-2.944-.521C100.363.01 93.04-.285 85.724.265 78.412.83 71.069 2.218 64.028 4.614l-2.635.913c-.881.297-1.73.682-2.597 1.019-.858.359-1.735.673-2.577 1.069l-2.532 1.173c-.852.376-1.675.808-2.496 1.245l-2.469 1.297-2.402 1.412c-.8.472-1.606.933-2.372 1.458l-2.324 1.528c-.782.497-1.506 1.078-2.261 1.612-.741.554-1.51 1.07-2.226 1.654l-2.157 1.737c-.729.565-1.417 1.178-2.103 1.792l-2.063 1.83-1.971 1.919c-.656.639-1.319 1.271-1.93 1.951-5.031 5.298-9.451 11.078-13.066 17.194A99.518 99.518 0 0 0 5.18 64.379C.805 77.299-.45 90.402.134 102.237c-.126-4.872-.147-11.859.753-18.755zm141.132 90.446a96.807 96.807 0 0 0 8.765-6.389c-2.84 2.339-5.758 4.499-8.765 6.389zm40.217-54.282c-.299.901-.552 1.791-.882 2.641l-.957 2.523-.466 1.248-.513 1.231a108.54 108.54 0 0 0-.997 2.501 97.307 97.307 0 0 1-6.587 13.35c-2.521 4.275-5.443 8.281-8.565 12.04-1.542 1.899-3.222 3.66-4.874 5.421l-2.581 2.523c-.847.848-1.774 1.604-2.652 2.404-.736.64-1.478 1.266-2.225 1.882a90.696 90.696 0 0 0 7.896-7.312 89.808 89.808 0 0 1-11.689 10.188c-1.036.722-2.037 1.496-3.113 2.176l-3.247 2.069-3.43 1.949c-1.167.648-2.399 1.224-3.634 1.855a74.206 74.206 0 0 1 2.685-1.508c1.021-.567 2.092-1.237 3.138-1.85 1.054-.601 2.012-1.261 2.808-1.813.796-.552 1.42-1.01 1.745-1.306-.464.315-.936.617-1.406.924a92.477 92.477 0 0 0 1.507-1.015c-.021.023-.065.059-.101.091 10.932-7.466 20.245-17.277 27.223-28.462 7.009-11.175 11.57-23.781 13.46-36.601-.41 5.142-1.352 9.248-2.543 12.851zm-6.654-65.352zm-8.448-12.698a92.37 92.37 0 0 1 7.773 14.352c.25.549.486 1.106.719 1.664 4.963 12.154 7.221 25.192 6.89 38.036.084-4.25-.198-8.498-.669-12.71-.533-4.854-1.518-9.65-2.824-14.341-2.562-9.407-6.723-18.323-12.005-26.451.485.67.996 1.396 1.525 2.166a32.826 32.826 0 0 1 1.59 2.463l-.638-1.109-.689-1.079-1.378-2.156c-.938-1.424-1.955-2.796-2.934-4.192-1.062-1.334-2.069-2.712-3.174-4.011-.836-.953-1.637-1.938-2.485-2.879 2.992 3.155 5.801 6.54 8.299 10.247zM96.886 1.152c1.467.078 2.937.221 4.407.331 1.204.101 2.402.279 3.588.413.356.015.732.039 1.204.092.471.065 1.034.186 1.769.354 5.469.912 10.459 2.283 14.001 3.699 6.798 2.573 13.123 5.774 18.86 9.471 5.739 3.69 10.889 7.887 15.246 12.471 2.008 2.179 1.422 1.704.315.646l1.662 1.764c-.736-.734-1.459-1.478-2.206-2.196l-2.301-2.09c.56.49 1.918 1.663 2.845 2.522-7.389-7.539-16.026-13.799-25.375-18.404-9.356-4.603-19.431-7.446-29.502-8.581 1.618.18 2.412.22 3.168.24-1.085-.127-2.173-.301-3.274-.401-1.479-.097-2.955-.229-4.423-.301l-4.36-.103c1.444-.001 2.907.039 4.376.073z"></path><path xmlns="http://www.w3.org/2000/svg" d="M115.942 184.69l.426-.125c-.446.12-.885.252-1.334.366.304-.076.609-.15.908-.241zM160.424 146.151c4.235-5.587 7.977-12.263 10.366-18.014l-.029.006c-6.061 14.322-15.892 26.66-28.16 35.744a159.12 159.12 0 0 0 6.418-4.703c2.698-2.82 7.213-7.406 11.405-13.033zM35.35 162.846c7.172 6.412 15.821 11.992 25.448 15.751 3.754 1.413 7.585 2.651 11.503 3.523 1.944.502 3.929.812 5.899 1.181.987.175 1.987.272 2.979.412.994.129 1.986.275 2.987.333-4.519-.501-9.005-1.251-13.372-2.44-4.364-1.185-8.642-2.65-12.769-4.449a97.4 97.4 0 0 1-11.894-6.314c-3.786-2.408-7.376-5.097-10.781-7.997zM123.877 174.277l-2.219.871-2.266.756c-1.5.54-3.047.944-4.59 1.373 1.551-.39 3.111-.754 4.624-1.254l2.283-.698 2.23-.815c-.086-.044-.594.055-.062-.233zM97.683 179.965c-1.16.099-2.326.09-3.494.102-1.168.014-2.338.039-3.509-.038l1.576.148c.482.031.916.068 1.295.113 1.381-.118 2.752-.151 4.132-.325zM51.441 169.209c1.341.787 2.765 1.48 4.178 2.244.354.194.996.415 1.801.709-1.721-.739-3.37-1.655-5.046-2.505-.83-.441-1.629-.935-2.443-1.395-.812-.464-1.621-.927-2.389-1.445l.937.626.977.584 1.985 1.182z"></path></g><g id="SvgjsG13799" featureKey="symbolFeature-0" transform="matrix(1.4917639424827698,0,0,1.4917639424827698,119.54818371164482,54.01329808832447)" fill="url(#SvgjsLinearGradient13807)"><g xmlns="http://www.w3.org/2000/svg"><path fill="url(#SvgjsLinearGradient13807)" d="M7.942,60.363c0.846,0,1.533-0.687,1.533-1.534c0-0.3-0.09-0.582-0.24-0.818l8.451-8.803   c0.225,0.13,0.487,0.207,0.767,0.207c0.447,0,0.848-0.193,1.128-0.498l8.048,4.411c-0.034,0.126-0.053,0.257-0.053,0.393   c0,0.848,0.687,1.534,1.533,1.534c0.847,0,1.533-0.687,1.533-1.534c0-0.326-0.104-0.628-0.278-0.876l8.403-9.588   c0.211,0.109,0.451,0.174,0.706,0.174c0.847,0,1.533-0.687,1.533-1.534c0-0.084-0.009-0.166-0.022-0.247l7.65-3.26   c0.279,0.373,0.723,0.614,1.225,0.614c0.618,0,1.149-0.366,1.391-0.893l7.745,1.493c0.008,0.838,0.69,1.516,1.532,1.516   c0.845,0,1.531-0.687,1.531-1.533c0-0.357-0.122-0.686-0.327-0.946l8.954-17.514c0.113,0.026,0.23,0.042,0.351,0.042   c0.361,0,0.691-0.125,0.955-0.333l8.012,6.207c-0.086,0.191-0.134,0.4-0.134,0.622c0,0.848,0.687,1.534,1.533,1.534   s1.532-0.686,1.532-1.534c0-0.378-0.138-0.724-0.366-0.992l8.915-12.333c0.178,0.072,0.373,0.113,0.575,0.113   c0.848,0,1.534-0.686,1.534-1.533s-0.687-1.533-1.534-1.533s-1.532,0.687-1.532,1.533c0,0.379,0.137,0.725,0.365,0.992   l-8.913,12.333c-0.179-0.072-0.374-0.113-0.576-0.113c-0.361,0-0.691,0.125-0.953,0.333l-8.013-6.207   c0.086-0.191,0.134-0.401,0.134-0.623c0-0.847-0.686-1.533-1.534-1.533c-0.845,0-1.531,0.686-1.531,1.533   c0,0.463,0.205,0.877,0.529,1.158l-8.891,17.391c-0.188-0.083-0.397-0.13-0.616-0.13c-0.597,0-1.112,0.341-1.365,0.838   l-7.773-1.497c-0.04-0.812-0.709-1.456-1.529-1.456c-0.846,0-1.533,0.686-1.533,1.533c0,0.084,0.009,0.166,0.022,0.247l-7.65,3.259   c-0.279-0.372-0.723-0.614-1.225-0.614c-0.846,0-1.533,0.687-1.533,1.533c0,0.327,0.104,0.63,0.278,0.878l-8.404,9.586   c-0.211-0.11-0.451-0.172-0.706-0.172c-0.447,0-0.848,0.192-1.129,0.498l-8.048-4.411c0.033-0.126,0.053-0.258,0.053-0.395   c0-0.846-0.687-1.533-1.533-1.533c-0.847,0-1.533,0.687-1.533,1.533c0,0.302,0.088,0.583,0.239,0.82l-8.45,8.803   c-0.226-0.131-0.488-0.207-0.767-0.207c-0.848,0-1.533,0.687-1.533,1.531C6.41,59.677,7.095,60.363,7.942,60.363z"></path><path fill="url(#SvgjsLinearGradient13807)" d="M92.059,66.326c-0.886,0-1.605,0.721-1.605,1.605c0,0.125,0.016,0.246,0.044,0.364l-7.854,3.864   c-0.296-0.359-0.741-0.589-1.241-0.589c-0.886,0-1.606,0.72-1.606,1.604c0,0.068,0.007,0.133,0.015,0.197l-7.444,2.733   c-0.289-0.425-0.777-0.706-1.33-0.706c-0.683,0-1.266,0.432-1.497,1.034l-7.458-0.897c-0.179-0.692-0.807-1.206-1.554-1.206   c-0.798,0-1.458,0.583-1.585,1.347l-7.563,1.586c-0.214-0.635-0.814-1.095-1.521-1.095c-0.538,0-1.014,0.268-1.305,0.675   l-7.741-4.142c0.167-0.255,0.267-0.559,0.267-0.885c0-0.886-0.721-1.606-1.606-1.606c-0.846,0-1.54,0.658-1.6,1.489l-7.161-1.461   c-0.024-0.866-0.733-1.561-1.604-1.561c-0.885,0-1.606,0.719-1.606,1.606c0,0.089,0.009,0.174,0.023,0.261l-7.771,3.229   c-0.292-0.405-0.766-0.671-1.302-0.671c-0.886,0-1.606,0.721-1.606,1.606c0,0.355,0.118,0.683,0.314,0.949L8.68,85.583   C8.458,85.467,8.208,85.4,7.942,85.4c-0.886,0-1.606,0.721-1.606,1.606c0,0.885,0.72,1.605,1.606,1.605   c0.885,0,1.605-0.721,1.605-1.605c0-0.355-0.118-0.683-0.313-0.95l8.481-9.921c0.221,0.114,0.472,0.181,0.738,0.181   c0.885,0,1.605-0.722,1.605-1.606c0-0.091-0.009-0.177-0.023-0.264l7.772-3.226c0.291,0.403,0.766,0.668,1.302,0.668   c0.646,0,1.203-0.384,1.458-0.936l7.443,1.521c0.25,0.559,0.812,0.949,1.463,0.949c0.279,0,0.542-0.072,0.771-0.196l8.031,4.296   c-0.013,0.082-0.022,0.167-0.022,0.253c0,0.885,0.721,1.606,1.606,1.606c0.811,0,1.48-0.604,1.589-1.385l7.545-1.585   c0.202,0.654,0.813,1.131,1.534,1.131c0.769,0,1.412-0.545,1.569-1.269l7.342,0.885c0.077,0.813,0.766,1.454,1.598,1.454   c0.887,0,1.606-0.721,1.606-1.606c0-0.074-0.006-0.146-0.016-0.22l7.435-2.729c0.286,0.438,0.78,0.725,1.341,0.725   c0.885,0,1.605-0.722,1.605-1.606c0-0.124-0.016-0.245-0.044-0.361l7.854-3.865c0.295,0.359,0.74,0.589,1.24,0.589   c0.886,0,1.606-0.72,1.606-1.606C93.665,67.047,92.944,66.326,92.059,66.326z"></path><path fill="url(#SvgjsLinearGradient13807)" d="M7.942,72.403c0.855,0,1.551-0.697,1.551-1.552c0-0.085-0.009-0.169-0.022-0.251l7.739-3.278   c0.283,0.381,0.734,0.628,1.244,0.628c0.82,0,1.492-0.641,1.545-1.447l7.688-1.327c0.239,0.55,0.787,0.936,1.423,0.936   c0.855,0,1.551-0.695,1.551-1.551c0-0.272-0.071-0.529-0.196-0.752l8.148-7.496c0.246,0.166,0.543,0.262,0.861,0.262   c0.855,0,1.551-0.696,1.551-1.552c0-0.004,0-0.009,0-0.014l7.551-1.903c0.239,0.552,0.787,0.938,1.424,0.938   c0.841,0,1.524-0.67,1.549-1.503l7.549-0.978c0.235,0.557,0.787,0.949,1.43,0.949c0.855,0,1.55-0.696,1.55-1.552   c0-0.099-0.01-0.197-0.028-0.291l7.695-3.777c0.279,0.419,0.755,0.695,1.292,0.695c0.855,0,1.553-0.695,1.553-1.55   c0-0.371-0.13-0.71-0.348-0.976l8.423-9.339c0.218,0.119,0.471,0.188,0.738,0.188c0.855,0,1.55-0.697,1.55-1.552   c0-0.072-0.006-0.141-0.014-0.21l7.852-3.077c0.281,0.4,0.744,0.663,1.269,0.663c0.855,0,1.553-0.697,1.553-1.552   c0-0.855-0.697-1.551-1.553-1.551c-0.854,0-1.552,0.696-1.552,1.551c0,0.071,0.008,0.142,0.017,0.21l-7.853,3.078   c-0.281-0.4-0.745-0.663-1.269-0.663c-0.855,0-1.552,0.696-1.552,1.551c0,0.324,0.101,0.625,0.271,0.874l-8.462,9.385   c-0.19-0.083-0.401-0.131-0.623-0.131c-0.854,0-1.549,0.696-1.549,1.552c0,0.055,0.002,0.11,0.008,0.165l-7.749,3.804   c-0.285-0.362-0.725-0.596-1.219-0.596c-0.815,0-1.484,0.632-1.547,1.433l-7.585,0.98c-0.249-0.52-0.78-0.881-1.396-0.881   c-0.818,0-1.49,0.639-1.546,1.443l-7.607,1.918c-0.261-0.494-0.778-0.829-1.373-0.829c-0.854,0-1.55,0.694-1.55,1.549   c0,0.273,0.071,0.53,0.195,0.754l-8.147,7.496c-0.247-0.166-0.543-0.264-0.862-0.264c-0.82,0-1.492,0.641-1.545,1.448l-7.688,1.327   c-0.239-0.55-0.787-0.936-1.423-0.936c-0.855,0-1.552,0.694-1.552,1.55c0,0.086,0.009,0.17,0.023,0.253l-7.74,3.276   c-0.282-0.38-0.733-0.626-1.242-0.626c-0.855,0-1.552,0.694-1.552,1.55C6.391,71.706,7.087,72.403,7.942,72.403z"></path></g></g><g id="SvgjsG13800" featureKey="nameFeature-0" transform="matrix(3.9812138294876114,0,0,3.9812138294876114,85.08208098397994,164.2768808894249)" fill="url(#SvgjsLinearGradient13810)"><path d="M2.24 25.16 l0 -11.2 c0 -0.28 0 -0.56 0.04 -0.84 c0.04 -0.16 0.04 -0.32 0.04 -0.52 l0 -0.64 c0 -0.08 0.08 -0.16 0.16 -0.2 c0.12 -0.04 0.24 -0.08 0.36 -0.08 c0.12 -0.04 0.24 -0.08 0.32 -0.12 c0.12 -0.12 0.24 -0.16 0.4 -0.16 s0.28 0 0.4 -0.04 c0.4 0 0.8 0 1.16 -0.08 c0.24 -0.04 0.48 0 0.72 0.04 c0.32 0.08 0.68 0.08 1.04 0 c0.28 -0.04 0.56 -0.04 0.84 0 c0.2 0.08 0.44 0 0.64 0 c0.16 0 0.32 -0.04 0.44 0 c0.24 0.04 0.48 0.04 0.72 0 c0.08 -0.04 0.16 0 0.28 0 c0.2 0.04 0.4 0.12 0.6 0.16 c0.32 0.04 0.6 0.12 0.84 0.36 c0.04 0.04 0.08 0.08 0.16 0.08 c0.2 0.08 0.4 0.2 0.52 0.36 c0.4 0.2 0.68 0.52 1.04 0.8 c0.04 0.04 0.08 0.04 0.08 0.08 c0.2 0.36 0.52 0.6 0.72 0.92 c0.12 0.16 0.24 0.32 0.24 0.52 c0.04 0.12 0.08 0.2 0.16 0.32 c0 0.04 0.08 0.12 0.08 0.16 c0 0.44 0.2 0.84 0.24 1.28 c0.08 0.64 0.24 1.24 0.48 1.8 c0.08 0.2 0.12 0.36 0.16 0.52 c0 0.12 0 0.24 0.04 0.4 c0 0.16 0 0.28 0.04 0.44 c0.04 0.24 0.12 0.52 0.16 0.76 s-0.04 0.48 0 0.72 c0.04 0.28 0.04 0.6 -0.08 0.88 c-0.08 0.32 -0.12 0.6 -0.08 0.92 c0 0.28 -0.04 0.52 -0.2 0.76 c-0.16 0.2 -0.16 0.48 -0.12 0.76 c0.04 0.4 -0.04 0.76 -0.2 1.12 c-0.12 0.32 -0.16 0.64 -0.2 0.96 c-0.04 0.08 -0.04 0.16 -0.08 0.24 c-0.12 0.24 -0.24 0.48 -0.32 0.72 c-0.04 0.08 -0.12 0.12 -0.16 0.2 c-0.08 0.08 -0.16 0.16 -0.2 0.24 c-0.16 0.36 -0.4 0.6 -0.64 0.84 c-0.12 0.12 -0.2 0.28 -0.36 0.36 c-0.12 0.12 -0.28 0.16 -0.44 0.24 c-0.2 0.04 -0.36 0.16 -0.52 0.28 c-0.08 0.12 -0.2 0.2 -0.28 0.28 c-0.12 0.08 -0.2 0.16 -0.36 0.12 c-0.32 0 -0.6 0.08 -0.88 0.2 c-0.4 0.16 -0.84 0.24 -1.28 0.24 c-0.28 -0.04 -0.52 0.04 -0.76 0.08 l-0.32 0 c-0.24 -0.08 -0.48 -0.08 -0.72 -0.08 c-0.32 0.04 -0.64 0 -0.96 -0.08 c-0.16 -0.04 -0.32 -0.04 -0.48 -0.04 c-0.08 0 -0.2 0.12 -0.2 0.24 l0 0.6 l0 4.8 c0 0.72 -0.04 1.44 -0.16 2.16 c-0.08 0.36 -0.24 0.64 -0.4 0.96 c0 0.04 -0.08 0.12 -0.12 0.12 c-0.2 0.08 -0.4 0.04 -0.56 0.2 l-0.04 0 c-0.36 0 -0.72 0.04 -1.08 0 c-0.2 0 -0.32 -0.12 -0.44 -0.32 c-0.16 -0.4 -0.32 -0.76 -0.36 -1.2 c-0.08 -0.52 -0.12 -1.04 -0.12 -1.56 l0 -11.08 l0 0 z M5.52 20.76 l0 1.16 l0 4.24 l0 0.6 c0 0.12 0.12 0.2 0.2 0.2 c0.2 0.04 0.4 0.04 0.6 0.04 c0.16 0 0.28 0 0.44 0.04 c0.44 0.04 0.84 0.04 1.24 0.04 c0.68 0 1.28 -0.12 1.92 -0.4 c0.44 -0.16 0.8 -0.48 1.08 -0.92 c0.24 -0.4 0.44 -0.88 0.48 -1.4 c0.08 -0.56 0.16 -1.16 0.28 -1.72 c0.16 -0.6 0.2 -1.2 0.2 -1.8 c0 -0.36 -0.04 -0.72 -0.12 -1.04 c-0.12 -0.48 -0.24 -0.96 -0.32 -1.48 c-0.16 -0.72 -0.4 -1.44 -0.6 -2.2 c-0.04 -0.16 -0.12 -0.28 -0.24 -0.36 c-0.28 -0.24 -0.52 -0.52 -0.8 -0.76 c-0.24 -0.2 -0.52 -0.32 -0.84 -0.32 c-0.52 -0.04 -1.04 -0.16 -1.56 -0.04 l-0.44 0 l-1.08 0 l-0.24 0 s-0.2 0.12 -0.2 0.2 l0 0.64 l0 5.28 z M18.206000000000003 11.48 c0.6 -0.28 1.2 -0.4 1.84 -0.4 c0.16 0 0.36 0 0.56 0.04 c0.16 0.04 0.24 0.12 0.28 0.28 c0.08 0.16 0.12 0.28 0.16 0.44 c0.08 0.36 0.12 0.72 0.2 1.08 c0.04 0.12 0.08 0.24 0.12 0.4 c0.08 0.12 0.16 0.24 0.2 0.36 c0.16 0.68 0.36 1.32 0.52 2 c0.12 0.4 0.24 0.8 0.44 1.2 c0.28 0.56 0.56 1.12 0.84 1.72 c0.24 0.52 0.52 1.04 0.76 1.6 c0.32 0.64 0.6 1.32 0.92 2 c0.12 0.28 0.32 0.56 0.48 0.88 c0.52 0.92 0.92 1.88 1.2 2.92 c0.04 0.2 0.12 0.4 0.2 0.6 c0.44 1.04 0.88 2.04 1.32 3.04 c0.16 0.32 0.32 0.6 0.52 0.88 c0.24 0.32 0.48 0.68 0.68 1.04 c0.12 0.24 0.28 0.4 0.4 0.6 c0.04 0.04 0.08 0.04 0.12 0.08 c0.04 0 0.12 -0.08 0.12 -0.16 l0 -0.72 l0 -19.72 l0 -0.72 c0 -0.08 0.04 -0.16 0.08 -0.24 c0.76 -0.2 1.52 -0.2 2.28 -0.2 c0.08 0 0.16 0.04 0.28 0.04 c0.36 0.12 0.48 0.12 0.52 0.6 c0.08 0.88 0.04 1.76 0.04 2.64 l0 2.84 c0.04 0.28 0 0.56 0 0.84 c0 0.56 0.04 1.12 0 1.72 c0 0.56 0.04 1.16 0 1.76 l0 1.68 l0 1.8 l0 2.2 c0 0.8 -0.04 1.64 -0.04 2.44 c0 0.36 0 0.68 -0.04 1 c0 1.44 0 2.84 -0.04 4.28 c0 0.52 -0.04 1.04 -0.08 1.56 l0 0.28 c-0.04 0.52 0.12 0.96 0.6 1.24 c0.24 0.12 0.32 0.28 0.32 0.52 c0.04 0.12 0.04 0.28 0.04 0.4 c0 0.16 -0.08 0.24 -0.16 0.32 c-0.28 0.2 -0.48 0.52 -0.68 0.8 c-0.08 0.16 -0.16 0.28 -0.28 0.4 c-0.24 0.2 -0.48 0.32 -0.76 0.28 c-0.12 -0.04 -0.2 0 -0.28 0 c-0.28 0 -0.48 -0.12 -0.64 -0.32 c-0.2 -0.24 -0.44 -0.48 -0.64 -0.72 c-0.16 -0.16 -0.28 -0.36 -0.36 -0.52 c-0.28 -0.6 -0.64 -1.2 -1 -1.72 c-0.2 -0.28 -0.4 -0.56 -0.6 -0.8 c-0.28 -0.24 -0.52 -0.56 -0.72 -0.88 c-0.16 -0.2 -0.32 -0.4 -0.44 -0.64 c-0.12 -0.16 -0.24 -0.32 -0.36 -0.52 c-0.2 -0.44 -0.44 -0.84 -0.72 -1.2 s-0.52 -0.76 -0.72 -1.16 c-0.32 -0.56 -0.6 -1.12 -0.84 -1.72 c-0.12 -0.44 -0.32 -0.84 -0.52 -1.24 c-0.36 -0.76 -0.68 -1.56 -0.92 -2.36 c-0.12 -0.44 -0.32 -0.84 -0.52 -1.24 c-0.48 -0.88 -0.92 -1.72 -1.28 -2.64 c-0.04 -0.12 -0.12 -0.24 -0.2 -0.36 l-0.04 0 l-0.08 0 l0 0.56 l0 7.48 c-0.04 2 -0.04 4.04 -0.08 6.08 c0 0.76 -0.04 1.52 -0.16 2.28 c-0.04 0.16 -0.04 0.32 -0.04 0.48 c-0.04 0.2 -0.16 0.36 -0.36 0.44 c-0.52 0.2 -1.04 0.24 -1.6 0.16 c-0.16 0 -0.36 -0.08 -0.52 -0.12 c-0.12 -0.04 -0.16 -0.12 -0.16 -0.24 c-0.04 -0.12 -0.04 -0.24 -0.08 -0.36 c0 -0.16 0 -0.32 -0.04 -0.48 c-0.08 -0.64 -0.12 -1.28 -0.16 -1.92 l0 -0.96 c-0.04 -0.4 -0.04 -0.8 -0.04 -1.24 l0 -20.28 c0 -0.44 0.04 -0.88 -0.08 -1.32 c-0.04 -0.08 0 -0.2 0.04 -0.28 c0.12 -0.28 0.16 -0.56 0.2 -0.88 z M39.332 25.16 l0 -11.2 c0 -0.28 0 -0.56 0.04 -0.84 c0.04 -0.16 0.04 -0.32 0.04 -0.52 l0 -0.64 c0 -0.08 0.08 -0.16 0.16 -0.2 c0.12 -0.04 0.24 -0.08 0.36 -0.08 c0.12 -0.04 0.24 -0.08 0.32 -0.12 c0.12 -0.12 0.24 -0.16 0.4 -0.16 s0.28 0 0.4 -0.04 c0.4 0 0.8 0 1.16 -0.08 c0.24 -0.04 0.48 0 0.72 0.04 c0.32 0.08 0.68 0.08 1.04 0 c0.28 -0.04 0.56 -0.04 0.84 0 c0.2 0.08 0.44 0 0.64 0 c0.16 0 0.32 -0.04 0.44 0 c0.24 0.04 0.48 0.04 0.72 0 c0.08 -0.04 0.16 0 0.28 0 c0.2 0.04 0.4 0.12 0.6 0.16 c0.32 0.04 0.6 0.12 0.84 0.36 c0.04 0.04 0.08 0.08 0.16 0.08 c0.2 0.08 0.4 0.2 0.52 0.36 c0.4 0.2 0.68 0.52 1.04 0.8 c0.04 0.04 0.08 0.04 0.08 0.08 c0.2 0.36 0.52 0.6 0.72 0.92 c0.12 0.16 0.24 0.32 0.24 0.52 c0.04 0.12 0.08 0.2 0.16 0.32 c0 0.04 0.08 0.12 0.08 0.16 c0 0.44 0.2 0.84 0.24 1.28 c0.08 0.64 0.24 1.24 0.48 1.8 c0.08 0.2 0.12 0.36 0.16 0.52 c0 0.12 0 0.24 0.04 0.4 c0 0.16 0 0.28 0.04 0.44 c0.04 0.24 0.12 0.52 0.16 0.76 s-0.04 0.48 0 0.72 c0.04 0.28 0.04 0.6 -0.08 0.88 c-0.08 0.32 -0.12 0.6 -0.08 0.92 c0 0.28 -0.04 0.52 -0.2 0.76 c-0.16 0.2 -0.16 0.48 -0.12 0.76 c0.04 0.4 -0.04 0.76 -0.2 1.12 c-0.12 0.32 -0.16 0.64 -0.2 0.96 c-0.04 0.08 -0.04 0.16 -0.08 0.24 c-0.12 0.24 -0.24 0.48 -0.32 0.72 c-0.04 0.08 -0.12 0.12 -0.16 0.2 c-0.08 0.08 -0.16 0.16 -0.2 0.24 c-0.16 0.36 -0.4 0.6 -0.64 0.84 c-0.12 0.12 -0.2 0.28 -0.36 0.36 c-0.12 0.12 -0.28 0.16 -0.44 0.24 c-0.2 0.04 -0.36 0.16 -0.52 0.28 c-0.08 0.12 -0.2 0.2 -0.28 0.28 c-0.12 0.08 -0.2 0.16 -0.36 0.12 c-0.32 0 -0.6 0.08 -0.88 0.2 c-0.4 0.16 -0.84 0.24 -1.28 0.24 c-0.28 -0.04 -0.52 0.04 -0.76 0.08 l-0.32 0 c-0.24 -0.08 -0.48 -0.08 -0.72 -0.08 c-0.32 0.04 -0.64 0 -0.96 -0.08 c-0.16 -0.04 -0.32 -0.04 -0.48 -0.04 c-0.08 0 -0.2 0.12 -0.2 0.24 l0 0.6 l0 4.8 c0 0.72 -0.04 1.44 -0.16 2.16 c-0.08 0.36 -0.24 0.64 -0.4 0.96 c0 0.04 -0.08 0.12 -0.12 0.12 c-0.2 0.08 -0.4 0.04 -0.56 0.2 l-0.04 0 c-0.36 0 -0.72 0.04 -1.08 0 c-0.2 0 -0.32 -0.12 -0.44 -0.32 c-0.16 -0.4 -0.32 -0.76 -0.36 -1.2 c-0.08 -0.52 -0.12 -1.04 -0.12 -1.56 l0 -11.08 l0 0 z M42.611999999999995 20.76 l0 1.16 l0 4.24 l0 0.6 c0 0.12 0.12 0.2 0.2 0.2 c0.2 0.04 0.4 0.04 0.6 0.04 c0.16 0 0.28 0 0.44 0.04 c0.44 0.04 0.84 0.04 1.24 0.04 c0.68 0 1.28 -0.12 1.92 -0.4 c0.44 -0.16 0.8 -0.48 1.08 -0.92 c0.24 -0.4 0.44 -0.88 0.48 -1.4 c0.08 -0.56 0.16 -1.16 0.28 -1.72 c0.16 -0.6 0.2 -1.2 0.2 -1.8 c0 -0.36 -0.04 -0.72 -0.12 -1.04 c-0.12 -0.48 -0.24 -0.96 -0.32 -1.48 c-0.16 -0.72 -0.4 -1.44 -0.6 -2.2 c-0.04 -0.16 -0.12 -0.28 -0.24 -0.36 c-0.28 -0.24 -0.52 -0.52 -0.8 -0.76 c-0.24 -0.2 -0.52 -0.32 -0.84 -0.32 c-0.52 -0.04 -1.04 -0.16 -1.56 -0.04 l-0.44 0 l-1.08 0 l-0.24 0 s-0.2 0.12 -0.2 0.2 l0 0.64 l0 5.28 z"></path></g>
			</g>
		</svg>
	